<?xml version="1.0" encoding="utf-8"?>
<!DOCTYPE svg PUBLIC "-//W3C//DTD SVG 1.1//EN" "http://www.w3.org/Graphics/SVG/1.1/DTD/svg11.dtd">
<svg style="width:308px;height:308px;" version="1.1" id="图形" xmlns="http://www.w3.org/2000/svg" xmlns:xlink="http://www.w3.org/1999/xlink" x="0px" y="0px" width="1024px" height="1024px" viewBox="0 0 1024 1024" enable-background="new 0 0 1024 1024" xml:space="preserve">
  <path class="svgpath" data-index="path_0" fill="#272636" d="M623.076818 748.923014c-17.597797 0-31.82073-14.222933-31.82073-31.82073L591.256088 367.026164c0-17.597797 14.222933-31.826869 31.82073-31.826869s31.826869 14.229073 31.826869 31.826869l0 350.075097C654.904711 734.700081 640.675638 748.923014 623.076818 748.923014L623.076818 748.923014zM432.131975 748.923014c-17.603937 0-31.826869-14.222933-31.826869-31.82073L400.305105 367.026164c0-17.597797 14.222933-31.826869 31.826869-31.826869 17.597797 0 31.82073 14.229073 31.82073 31.826869l0 350.075097C463.952704 734.700081 449.729771 748.923014 432.131975 748.923014L432.131975 748.923014zM941.325046 207.90205l-159.124114 0 0-63.648622c0-52.639894-42.485627-95.475492-94.741781-95.475492L368.477212 48.777937c-52.633754 0-95.469352 42.835597-95.469352 95.475492l0 63.648622-159.124114 0c-17.603937 0-31.826869 14.222933-31.826869 31.826869 0 17.597797 14.222933 31.82073 31.826869 31.82073l827.441299 0c17.597797 0 31.826869-14.222933 31.826869-31.82073C973.152938 222.124983 958.923866 207.90205 941.325046 207.90205L941.325046 207.90205zM336.656483 144.253428c0-17.536398 14.286378-31.826869 31.82073-31.826869l318.981938 0c17.444301 0 31.094182 13.972223 31.094182 31.826869l0 63.648622L336.656483 207.90205 336.656483 144.253428 336.656483 144.253428zM750.506069 939.873997 304.892035 939.873997c-52.634778 0-95.470375-42.835597-95.470375-95.475492L209.42166 366.550327c0-17.569144 14.257725-31.825846 31.822776-31.825846 17.569144 0 31.825846 14.256702 31.825846 31.825846l0 477.848179c0 17.569144 14.287401 31.826869 31.822776 31.826869l445.61301 0c17.565051 0 31.822776-14.257725 31.822776-31.826869L782.328845 367.851972c0-17.565051 14.228049-31.822776 31.825846-31.822776 17.59882 0 31.826869 14.257725 31.826869 31.822776l0 476.546533C845.981561 897.0384 803.140847 939.873997 750.506069 939.873997L750.506069 939.873997z" />

</svg>
