<?xml version="1.0" encoding="utf-8"?>
<!DOCTYPE svg PUBLIC "-//W3C//DTD SVG 1.1//EN" "http://www.w3.org/Graphics/SVG/1.1/DTD/svg11.dtd">
<svg style="width:308px;height:308px;" version="1.1" id="图形" xmlns="http://www.w3.org/2000/svg" xmlns:xlink="http://www.w3.org/1999/xlink" x="0px" y="0px" width="1024px" height="1024px" viewBox="0 0 1024 1024" enable-background="new 0 0 1024 1024" xml:space="preserve">
  <path class="svgpath" data-index="path_0" fill="#272636" d="M790.186113 395.329024 226.553715 395.329024c-7.530181 0-13.621466 6.104665-13.621466 13.621466l0 27.246581c0 7.526532 6.091285 13.621466 13.621466 13.621466l563.632399 0c7.530181 0 13.626331-6.094934 13.626331-13.621466l0-27.246581C803.807579 401.433688 797.716294 395.329024 790.186113 395.329024L790.186113 395.329024z" />
<path class="svgpath" data-index="path_1" fill="#272636" d="M790.186113 559.939679 226.553715 559.939679c-7.530181 0-13.621466 6.105881-13.621466 13.621466l0 27.241716c0 7.531397 6.091285 13.626331 13.621466 13.626331l563.632399 0c7.530181 0 13.626331-6.094934 13.626331-13.626331l0-27.241716C803.807579 566.044343 797.716294 559.939679 790.186113 559.939679L790.186113 559.939679z" />
<path class="svgpath" data-index="path_2" fill="#272636" d="M790.186113 230.718369 226.553715 230.718369c-7.530181 0-13.621466 6.104665-13.621466 13.626331l0 27.242932c0 7.531397 6.091285 13.621466 13.621466 13.621466l563.632399 0c7.530181 0 13.626331-6.090069 13.626331-13.621466L803.812444 244.344701C803.807579 236.823034 797.716294 230.718369 790.186113 230.718369L790.186113 230.718369z" />
<path class="svgpath" data-index="path_3" fill="#272636" d="M835.194483 76.493794 181.551427 76.493794c-60.184281 0-108.979026 48.794745-108.979026 108.977809l0 653.896048c0 60.181848 48.794745 108.979026 108.979026 108.979026l653.643056 0c60.183064 0 108.979026-48.795961 108.979026-108.979026L944.173508 185.471603C944.172292 125.288539 895.377547 76.493794 835.194483 76.493794L835.194483 76.493794zM889.681563 839.367651c0 30.06599-24.397981 54.491946-54.48708 54.491946L181.551427 893.859597c-30.090316 0-54.48708-24.425956-54.48708-54.491946L127.064347 185.471603c0-30.0891 24.396764-54.485864 54.48708-54.485864l653.643056 0c30.0891 0 54.48708 24.396764 54.48708 54.485864L889.681563 839.367651 889.681563 839.367651z" />
<path class="svgpath" data-index="path_4" fill="#272636" d="M790.186113 724.549117 226.553715 724.549117c-7.530181 0-13.621466 6.097367-13.621466 13.622682l0 27.247797c0 7.502206 6.091285 13.62025 13.621466 13.62025l563.632399 0c7.530181 0 13.626331-6.118044 13.626331-13.62025l0-27.247797C803.807579 730.646484 797.716294 724.549117 790.186113 724.549117L790.186113 724.549117z" />
<path class="svgpath" data-index="path_5" fill="#272636" d="M791.014421 628.336491" />

</svg>
